<?xml version="1.0" encoding="UTF-8"?>
<!-- Generator: Adobe Illustrator 25.2.0, SVG Export Plug-In . SVG Version: 6.00 Build 0)  -->
<svg xmlns="http://www.w3.org/2000/svg" xmlns:xlink="http://www.w3.org/1999/xlink" version="1.1" id="Capa_1" x="0px" y="0px" viewBox="0 0 500 500" style="enable-background:new 0 0 500 500;" xml:space="preserve" width="512" height="512">
<g>
	<g>
		<path d="M200.853,347.354c-0.509,0.686-0.971,1.412-1.533,2.051c-3.616,4.113-7.169,8.286-10.931,12.262    c-1.29,1.363-3.03,2.384-4.718,3.27c-7.914,4.155-13.619-1.076-14.949-7.368c-0.919-4.348-0.235-8.617,0.733-12.864    c0.127-0.557,0.246-1.116,0.202-1.771c-0.299,0.4-0.602,0.797-0.896,1.201c-6.778,9.291-14.892,17.244-24.137,24.057    c-2.233,1.646-4.668,3.058-7.477,3.164c-4.401,0.165-8.317-1.592-10.351-5.902c-2.116-4.483-2.345-9.178-1.802-13.977    c0.999-8.833,3.909-17.145,7.23-25.3c3.697-9.079,7.783-18,11.493-27.075c1.225-2.996,1.975-6.221,2.63-9.405    c0.581-2.826-0.357-3.501-3.054-2.418c-3.667,1.472-6.831,3.775-9.61,6.534c-9.184,9.118-17.479,18.889-23.621,30.432    c-5.037,9.467-10.53,18.691-14.8,28.552c-1.146,2.646-2.115,5.369-3.235,8.027c-1.308,3.105-2.91,3.673-5.933,2.208    c-4.849-2.349-6.657-5.545-6.162-10.924c1.092-11.873,4.764-23.019,9.51-33.87c6.22-14.223,14.122-27.555,21.674-41.074    c1.477-2.644,2.873-5.334,4.242-8.035c0.474-0.936,0.852-1.948,1.086-2.968c0.159-0.692-0.009-1.458-0.031-2.191    c-0.717,0.179-1.559,0.178-2.13,0.57c-2.137,1.467-4.273,2.958-6.251,4.629c-8.53,7.207-15.997,15.434-22.766,24.287    c-15.714,20.55-28.409,42.754-36.658,67.372c-0.641,1.914-1.344,3.812-2.123,5.673c-0.713,1.706-1.169,3.4-1.094,5.292    c0.077,1.964-1.268,3.004-3.241,2.619c-4.679-0.916-8.2-3.449-10.322-7.767c-2.5-5.089-2.925-10.512-2.422-16.059    c0.939-10.364,4.19-20.118,8.018-29.693c6.796-16.996,15.059-33.281,24.033-49.22c2.05-3.641,3.915-7.391,5.747-11.148    c0.587-1.203,1.408-2.657,0.281-3.924c-1.116-1.254-2.742-0.947-4.064-0.43c-4.332,1.694-8.748,3.265-12.869,5.393    c-14.793,7.639-26.744,18.473-35.964,32.386c-3.705,5.59-5.984,11.58-6.715,18.205c-0.042,0.38-0.088,0.768-0.197,1.132    c-0.521,1.736-1.404,2.029-2.852,0.847c-2.779-2.269-3.922-5.437-4.444-8.819c-1.282-8.309,0.78-15.938,5.009-23.063    c3.991-6.722,9.32-12.254,15.573-16.863c12.076-8.901,25.262-15.606,39.809-19.463c4.529-1.201,9.138-1.924,13.851-1.086    c5.519,0.981,8.217,4.097,7.9,9.714c-0.167,2.95-0.539,6.013-1.532,8.767c-3.145,8.721-6.474,17.385-10.011,25.956    c-7.01,16.986-13.315,34.224-18.953,51.709c-0.1,0.31-0.173,0.629-0.031,1.049c0.205-0.424,0.419-0.845,0.615-1.274    c5.882-12.915,11.852-25.782,19.404-37.843c6.735-10.756,14.133-21.02,22.989-30.128c3.81-3.919,7.974-7.539,12.264-10.931    c3.837-3.033,8.259-5.029,13.273-5.543c10.415-1.066,19.664,10.133,16.268,19.764c-1.776,5.037-4.386,9.613-6.953,14.233    c-1.348,2.425-2.795,4.794-3.944,7.383c0.336-0.394,0.683-0.78,1.007-1.184c4.931-6.13,10.189-11.949,16.545-16.644    c2.232-1.649,4.623-3.146,7.107-4.38c4.842-2.406,9.777-2.534,14.093,1.053c4.514,3.751,5.449,8.802,3.905,14.294    c-2.041,7.255-5.275,14.043-8.662,20.734c-5.474,10.813-11.204,21.496-16.675,32.31c-1.862,3.68-3.389,7.545-4.83,11.415    c-0.71,1.907-1.033,4-1.255,6.039c-0.339,3.112,1.337,4.32,4.208,3.169c3.504-1.405,6.419-3.627,8.93-6.44    c6.75-7.563,12.572-15.817,18.091-24.291c3.781-5.805,7.456-11.679,11.145-17.543c2.568-4.083,4.109-8.548,4.937-13.296    c0.694-3.986-0.683-7.179-3.476-9.888c-0.781-0.758-1.591-1.45-1.304-2.687c0.288-1.242,1.332-1.629,2.371-1.819    c2.594-0.473,5.201-1.115,7.817-1.184c6.538-0.173,10.651,3.552,11.564,10.041c0.71,5.047-0.005,9.955-2.001,14.548    c-4.464,10.272-9.12,20.462-13.815,30.632c-1.368,2.964-2.737,5.93-3.953,8.96c-1.102,2.745-1.947,5.626-2.882,8.44    c-0.131,0.395-0.265,0.815-0.175,1.222c0.182,0.832,1.3,0.873,1.961,0.712c0.9-0.219,1.776-0.722,2.556-1.212    c1.459-0.916,2.882-1.94,4.144-3.108c6.671-6.173,11.797-13.591,16.398-21.328c1.416-2.381,1.661-5.481,2.327-8.279    c2.429-10.193,4.787-20.403,7.221-30.595c0.782-3.276,1.307-3.595,4.7-3.501c1.058,0.029,2.118,0.015,3.176,0.062    c5.042,0.227,8.387,3.406,8.6,8.466c0.092,2.184-0.173,4.416-0.545,6.58c-1.189,6.913-2.329,13.842-3.802,20.697    c-4.589,21.349-9.537,42.615-17.265,63.102c-3.953,10.48-7.726,21.054-13.029,30.96c-4.246,7.931-9.326,15.241-16.202,21.217    c-7.8,6.78-16.892,9.709-27.084,9.693c-3.389-0.005-6.552-0.745-9.493-2.518c-5.344-3.222-7.391-8.242-7.918-14.129    c-0.888-9.904,1.623-19.175,5.326-28.211c1.292-3.153,2.687-6.265,4.087-9.518c-0.341-0.067-0.731-0.19-1.128-0.217    c-14.315-0.999-28.461-3.3-42.631-5.44c-6.278-0.949-12.587-1.807-18.966-1.001c-3.515,0.444-6.908,1.25-9.828,3.425    c-4.199,3.128-5.337,7.653-3.145,12.419c1.537,3.341,3.989,5.864,6.962,7.928c1.106,0.768,2.274,1.445,3.393,2.194    c2.305,1.543,2.344,3.393,0.104,5.073c-2.195,1.647-4.695,2.596-7.358,3.178c-10.322,2.255-21.065-2.177-26.74-10.953    c-3.948-6.105-3.687-12.352,0.934-18.496c3.942-5.241,9.536-8.143,15.559-10.26c7.139-2.51,14.546-3.101,22.059-2.762    c11.249,0.508,22.216,2.826,33.176,5.172c9.459,2.025,18.954,3.794,28.595,4.717c1.518,0.145,2.388-0.239,3.263-1.564    c3.347-5.068,6.946-9.982,11.781-13.753c1.982-1.546,4.199-3.002,6.546-3.833c6.509-2.304,11.621,2.196,10.368,9.022    c-1.255,6.84-5.58,11.099-11.949,13.448c-4.315,1.591-8.836,1.836-13.37,1.802c-1.181-0.009-1.82,0.351-2.316,1.418    c-3.912,8.42-6.943,17.157-8.123,26.358c-0.523,4.082-0.048,8.37,0.506,12.493c0.621,4.622,4.915,7.399,9.524,6.75    c4.444-0.625,8.216-2.539,11.41-5.689c5.588-5.511,9.695-12.066,13.29-18.951c8.614-16.496,14.551-34.002,19.328-51.931    c1.992-7.477,3.928-14.969,5.885-22.455c0.079-0.302,0.116-0.615,0.172-0.922C200.985,347.423,200.919,347.388,200.853,347.354z     M152.514,395.436c4.605,0.544,10.628-2.672,12.944-6.83c0.37-0.664,0.711-1.383,0.867-2.119c0.506-2.387-1.208-4.017-3.543-3.284    c-0.958,0.301-1.997,0.876-2.613,1.639c-2.286,2.829-4.422,5.78-6.585,8.706C153.17,394.108,152.889,394.765,152.514,395.436z"/>
		<g>
			<path d="M133.455,142.144c0.202-18.609,2.519-37.446,8.732-55.669c2.977-8.731,6.78-17.072,12.131-24.639     c4.036-5.709,8.715-10.788,14.759-14.428c10.655-6.417,21.334-6.327,31.892,0.208c7.499,4.642,12.984,11.249,17.48,18.702     c7.475,12.391,12.362,25.796,15.297,39.936c3.71,17.874,4.847,35.92,3.4,54.109c-1.397,17.561-4.931,34.641-12.124,50.821     c-3.955,8.897-8.915,17.164-16.04,23.946c-5.298,5.042-11.328,8.754-18.703,9.885c-6.259,0.96-12.159-0.207-17.73-3.125     c-6.888-3.608-12.243-8.947-16.765-15.162c-7.569-10.402-12.425-22.086-15.896-34.38     C135.308,176.12,133.55,159.513,133.455,142.144z M167.343,139.238c-0.07,12.621,0.48,25.215,1.709,37.775     c1.219,12.462,2.982,24.838,6.335,36.935c1.415,5.104,3.003,10.166,5.732,14.745c1.044,1.752,2.343,3.426,3.815,4.833     c1.764,1.685,3.606,1.648,5.437,0.041c1.211-1.063,2.416-2.303,3.143-3.712c1.625-3.15,3.232-6.361,4.347-9.713     c4.31-12.955,6.004-26.416,7.203-39.94c1.08-12.183,1.406-24.397,1.282-36.63c-0.188-18.655-1.569-37.195-5.001-55.549     c-1.566-8.375-3.42-16.701-6.933-24.506c-1.305-2.9-3.047-5.69-5.034-8.174c-2.209-2.761-4.965-2.759-7.258-0.054     c-1.677,1.979-3.028,4.332-4.101,6.708c-2.989,6.618-4.462,13.697-5.807,20.79C168.674,101.437,167.565,120.301,167.343,139.238z     "/>
			<path d="M270.024,157.389c0.313-1.54,0.603-3.086,0.945-4.62c2.274-10.198,5.89-19.834,12.317-28.196     c4.715-6.136,10.538-10.857,18.262-12.646c8.447-1.956,15.751-0.157,21.631,6.652c5.64,6.529,8.604,14.124,9.899,22.524     c1.528,9.918,2.101,19.906,2.212,29.92c0.108,9.721-0.03,19.445,0.07,29.167c0.078,7.511,0.419,15.015,2.339,22.341     c0.969,3.697,2.188,7.289,4.709,10.272c0.619,0.732,1.278,1.451,2.016,2.056c3.348,2.744,6.971,2.613,10.149-0.328     c2.459-2.275,4.052-5.136,5.269-8.19c1.476-3.705,2.783-7.478,4.161-11.223c0.199-0.541,0.293-1.151,0.606-1.613     c0.049-0.072,0.103-0.141,0.161-0.207c0.607-0.689,1.796-0.672,2.152,0.175c0.027,0.065,0.044,0.131,0.048,0.197     c0.154,2.818,0.541,5.699,0.142,8.457c-1.039,7.174-3.763,13.775-8.516,19.292c-12.301,14.275-31.314,11.793-41.871,0.414     c-6.267-6.755-9.603-14.974-11.691-23.813c-2.521-10.67-3.124-21.53-2.928-32.413c0.216-11.977,0.947-23.943,1.367-35.918     c0.229-6.532,0.35-13.07,0.357-19.606c0.002-1.436-0.536-2.932-1.086-4.295c-0.715-1.77-1.895-2.245-3.742-1.692     c-4.255,1.272-7.391,4.021-9.789,7.665c-3.059,4.648-5.27,9.705-7.183,14.914c-5.137,13.988-8.219,28.466-9.723,43.233     c-1.047,10.276-1.421,20.626-1.894,30.952c-0.282,6.147-0.176,12.312-0.238,18.47c-0.021,2.052-0.173,2.259-2.163,2.341     c-3.46,0.144-6.922,0.298-10.384,0.351c-3.537,0.054-4.218-0.612-4.267-4.178c-0.103-7.459-0.157-14.919-0.21-22.379     c-0.298-41.583-0.606-83.166-0.875-124.749c-0.091-14.053-0.086-28.106-0.102-42.159c-0.001-1.342,0.167-2.684,0.254-4.025     c0.067-1.034,0.79-1.466,1.651-1.477c3.799-0.046,7.608-0.169,11.396,0.045c2.71,0.154,3.205,0.981,3.232,3.721     c0.364,36.432,0.731,72.865,1.1,109.297c0.004,0.419,0.04,0.837,0.061,1.255C269.918,157.378,269.971,157.384,270.024,157.389z"/>
		</g>
		<g>
			<path d="M291.862,328.753c-0.379,0.554-0.647,0.987-0.956,1.39c-4.059,5.311-8,10.718-12.226,15.893     c-3.224,3.948-7.317,6.946-11.893,9.2c-6.816,3.357-15.14,1.282-19.345-5.046c-2.944-4.43-3.771-9.468-4.17-14.577     c-0.606-7.754,0.49-15.385,2.294-22.892c3.112-12.953,7.522-25.45,13.888-37.196c3.191-5.889,7.301-11.087,12.258-15.59     c4.498-4.086,9.664-7.052,15.656-8.206c5.483-1.056,10.384,0.295,14.381,4.43c4.854,5.02,7.884,10.856,8.309,17.919     c0.043,0.71,0.17,1.414,0.519,2.189c0.677-2.024,1.379-4.04,2.023-6.074c0.706-2.227,1.506-2.852,3.879-2.82     c6.501,0.087,9.843,3.665,9.134,11.722c-0.294,3.345-1.234,6.765-2.551,9.866c-8.623,20.301-15.053,41.369-22.066,62.234     c-2.358,7.016-4.721,14.031-7.078,21.047c-0.196,0.584-0.367,1.177-0.555,1.783c1.957,0.094,3.806,0.232,5.657,0.264     c9.895,0.17,19.528,2.102,28.969,4.803c12.571,3.597,24.997,7.698,37.524,11.454c16.193,4.855,32.553,9.007,49.464,10.453     c11.663,0.997,23.307,0.687,34.749-1.927c9.029-2.062,17.327-5.833,24.071-12.411c3.85-3.755,7.54-7.674,11.336-11.487     c0.028-0.028,0.057-0.056,0.087-0.083c0.823-0.746,2.236-0.403,2.537,0.666c0.026,0.094,0.044,0.189,0.051,0.284     c0.46,6.291-0.033,12.472-2.097,18.501c-5.436,15.874-16.909,25.056-32.66,29.364c-9.383,2.566-18.945,2.424-28.509,1.058     c-13.415-1.916-25.996-6.546-38.21-12.168c-15.328-7.054-30.497-14.453-45.788-21.589c-9.995-4.664-20.26-8.609-31.153-10.702     c-5.461-1.05-10.968-1.371-16.516-1.275c-1.043,0.018-1.484,0.415-1.815,1.386c-4.564,13.375-9.247,26.706-14.87,39.688     c-4.093,9.45-8.943,18.415-15.82,26.192c-4.378,4.95-9.404,8.807-15.991,10.23c-3.271,0.707-6.575,0.876-9.885,0.153     c-6.191-1.352-9.492-5.715-11.117-11.348c-2.324-8.062-1.232-16.029,1.793-23.739c1.981-5.05,4.874-9.612,8.245-13.84     c8.071-10.123,17.091-19.23,28.721-25.275c3.907-2.03,8.12-3.469,12.167-5.238c0.587-0.256,1.304-0.755,1.494-1.303     c5.404-15.623,10.748-31.267,16.097-46.909C291.92,329.15,291.884,329.052,291.862,328.753z M305.46,281.537     c-0.222-2.801-0.424-6.257-0.792-9.695c-0.273-2.553-1-5.001-2.516-7.138c-1.592-2.244-3.806-2.765-6.152-1.32     c-1.095,0.675-2.22,1.452-3.012,2.439c-2.281,2.842-4.679,5.647-6.535,8.762c-11.432,19.193-18.18,40.141-22.608,61.893     c-0.681,3.344-0.793,6.897-0.559,10.311c0.264,3.861,2.028,4.679,5.276,2.596c2.444-1.567,4.749-3.468,6.775-5.552     c7.105-7.307,13.107-15.492,18.416-24.172c1.518-2.483,2.893-5.112,3.909-7.832c2.37-6.345,4.493-12.782,6.684-19.193     c0.308-0.902,0.554-1.855,0.631-2.801C305.182,287.296,305.281,284.749,305.46,281.537z M273.203,383.415     c-0.099-0.074-0.198-0.149-0.297-0.224c-1.105,0.57-2.215,1.13-3.313,1.713c-11.151,5.919-20.195,14.334-28.233,23.921     c-5.145,6.136-9.21,12.927-11.778,20.531c-1.354,4.009-1.937,8.155-0.75,12.349c0.931,3.289,3.647,5.093,7.026,4.535     c1.348-0.222,2.798-0.607,3.901-1.359c2.129-1.452,4.236-3.034,6.009-4.89c3.738-3.912,6.697-8.421,9.295-13.169     c5.717-10.448,10.249-21.408,14.203-32.624C270.539,390.589,271.889,387.009,273.203,383.415z"/>
			<path d="M362.57,311.898c2.456,0.615,4.967-0.047,7.428-0.883c0.402-0.137,0.698-0.85,0.873-1.356     c2.333-6.768,5.262-13.232,9.644-18.953c3.653-4.769,8.336-7.957,14.328-8.953c4.663-0.775,8.764,0.897,12.454,3.499     c2.341,1.65,3.07,4.461,3.979,7.052c0.158,0.449,0.273,0.913,0.502,1.689c1.019-3.22,1.955-6.138,2.865-9.064     c4.798-15.425,9.798-30.798,13.207-46.611c0.95-4.405,1.429-8.917,2-13.396c0.312-2.449,1.032-3.202,3.527-3.067     c0.625,0.034,1.247,0.138,1.871,0.14c6.616,0.025,10.076,4.264,11.058,10.375c1.303,8.117-0.042,16.015-2.183,23.816     c-3.648,13.286-8.801,26.038-13.828,38.838c-5.378,13.693-10.632,27.435-15.862,41.185c-1.664,4.376-2.681,8.932-2.912,13.633     c-0.035,0.719-0.026,1.445,0.025,2.163c0.248,3.46,1.862,4.713,5.371,4.265c4.668-0.596,8.103-3.206,10.796-6.822     c6.304-8.463,8.386-18.007,6.906-28.384c-0.155-1.087-0.391-2.344,0.721-2.826c0.843-0.366,2.181-0.051,3.01,0.246     c1.751,0.627,3.509,1.851,4.862,3.121c1.132,1.063,2.055,2.343,2.611,3.799c1.014,2.654,0.734,5.588,0.014,8.278     c-2.516,9.404-7.597,17.209-15.272,23.216c-4.383,3.431-9.314,5.545-15.052,5.319c-7.13-0.28-12.545-5.125-14.009-12.662     c-0.307-1.58-0.491-3.185-0.788-5.152c-0.602,1.08-1.036,1.855-1.466,2.632c-1.956,3.538-4.369,6.673-7.757,8.983     c-9.089,6.198-18.032,2.339-22.355-5.65c-2.614-4.831-3.143-10.17-3.235-15.538c-0.104-6.025,1.358-11.829,2.807-17.622     c0.148-0.591,0.293-1.183,0.509-2.061c-0.703,0.32-1.144,0.584-1.621,0.727c-1.557,0.466-3.109,1.132-4.699,1.255     c-1.49,0.115-1.826,0.746-2.135,2.028c-2.305,9.568-5.209,18.924-10.339,27.428c-2.78,4.608-6.143,8.744-10.315,12.167     c-4.643,3.809-9.864,5.669-15.84,3.917c-4.861-1.426-8.423-4.45-10.405-9.249c-2.372-5.744-2.191-11.721-1.418-17.643     c1.44-11.035,4.679-21.6,9.35-31.698c2.687-5.808,6.298-11.019,10.859-15.538c2.853-2.826,6.154-4.909,10.055-5.99     c4.016-1.113,7.754-0.452,11.135,1.905c5.269,3.672,8.043,8.929,8.648,15.18C362.883,303.617,362.57,307.668,362.57,311.898z      M407.541,299.996c0-2.311,0.136-4.009-0.043-5.672c-0.14-1.305-0.373-2.77-1.081-3.812c-2.348-3.456-3.523-4.172-6.6-0.638     c-2.137,2.455-3.971,5.389-5.151,8.417c-2.577,6.616-4.834,13.374-6.883,20.175c-2.669,8.862-4.491,17.912-4.557,27.228     c-0.01,1.483,0.011,3,0.302,4.444c0.542,2.696,2.314,3.597,4.671,2.166c2.024-1.23,4.082-2.677,5.555-4.49     c3.87-4.765,6.203-10.361,7.657-16.305c0.924-3.778,1.595-7.621,2.607-11.374C405.859,313.315,408.226,306.605,407.541,299.996z      M346.063,294.448c-0.531,0.6-0.891,0.921-1.146,1.31c-1.184,1.807-2.49,3.554-3.478,5.465     c-5.564,10.77-9.608,22.109-12.412,33.894c-1.292,5.43-2.577,10.875-2.463,16.499c0.032,1.586,0.476,3.206,0.979,4.728     c0.404,1.221,1.576,1.835,2.802,1.438c1.281-0.415,2.785-0.921,3.585-1.889c1.976-2.388,3.883-4.917,5.324-7.65     c5.586-10.592,9.236-21.943,12.608-33.384c0.115-0.389-0.036-1.071-0.322-1.333C345.939,308.411,344.058,302.213,346.063,294.448     z"/>
		</g>
		<g>
			<path d="M457.199,335.45c0.133-4.631,1.272-9.051,2.744-13.388c3.999-11.785,8.191-23.507,12.04-35.341     c4.251-13.071,8.19-26.246,10.995-39.721c0.565-2.716,0.806-5.508,1.07-8.277c0.2-2.099,1.196-2.944,3.252-2.443     c1.167,0.284,2.323,0.613,3.475,0.952c6.857,2.021,9.999,6.877,9.063,13.993c-1.054,8.007-3.448,15.67-6.088,23.255     c-5.55,15.949-12.419,31.367-18.901,46.944c-3.208,7.708-5.751,15.693-8.612,23.547c-0.278,0.763-0.59,2.036-1.04,2.108     c-1.002,0.159-2.222-0.06-3.138-0.538c-2.751-1.435-4.231-3.848-4.582-6.918C457.32,338.238,457.288,336.84,457.199,335.45z"/>
			<path d="M464.697,361.051c0.013,5.137-4.116,9.543-8.905,9.503c-4.664-0.039-8.272-3.841-8.308-8.755     c-0.038-5.099,4.149-9.519,9.055-9.562C461.14,352.199,464.684,356.027,464.697,361.051z"/>
		</g>
	</g>
	<g>
		<path d="M71.087,130.892c-0.13-8.034,1.124-13.91,3.824-19.458c1.367-2.808,3.177-5.269,5.86-6.989    c4.009-2.57,8.608-2.38,12.39,0.499c4.108,3.128,6.194,7.525,7.073,12.376c0.983,5.429,1.639,10.943,2.024,16.449    c1.777,25.413,6.47,50.234,14.641,74.383c1.216,3.595,2.292,7.238,3.374,10.876c0.143,0.48,0.1,1.414-0.141,1.525    c-0.523,0.243-1.36,0.322-1.837,0.055c-1.334-0.748-2.664-1.579-3.792-2.602c-8.732-7.908-15.881-17.122-22.124-27.069    c-8.654-13.79-15.112-28.53-19.046-44.342C71.901,140.835,71.199,134.962,71.087,130.892z"/>
		<path d="M44.109,193.313c7.855,0.091,15.372,1.772,22.515,4.996c11.548,5.212,21.453,12.598,29.249,22.652    c1.316,1.697,2.376,3.615,3.39,5.519c0.838,1.574,0.256,2.41-1.543,2.259c-1.425-0.119-2.879-0.356-4.234-0.802    c-16.357-5.384-32.98-6.171-49.871-3.127c-5.16,0.93-10.378,1.71-15.642,1.021c-2.031-0.266-4.098-0.716-5.995-1.469    c-6.549-2.602-9.414-9.527-6.74-16.062c1.726-4.219,4.882-7.213,8.644-9.608C29.445,195.152,36.612,193.275,44.109,193.313z"/>
		<path d="M40.663,157.763c-0.851-3.307-0.876-6.803,0.202-10.043c0.07-0.209,0.144-0.417,0.223-0.623    c1.894-4.906,6.425-6.59,11.18-4.29c3.212,1.554,5.794,3.927,7.492,6.993c2.603,4.698,5.187,9.452,7.216,14.412    c2.765,6.759,5.802,13.295,10.391,19.034c0.68,0.85,1.834,1.977,0.933,3c-0.512,0.582-2.017,0.524-3.023,0.384    c-1.651-0.23-3.347-0.555-4.872-1.201c-9.404-3.984-17.989-9.181-24.481-17.288C43.464,165.069,41.677,161.708,40.663,157.763z"/>
		<path d="M117.346,235.879c-0.015-5.394,3.715-9.262,8.93-9.259c3.891,0.002,9.529,3.265,9.404,9.003    c-0.113,5.182-4.138,9.334-9.238,9.338C121.464,244.965,117.36,240.867,117.346,235.879z"/>
	</g>
	<g>
		<path d="M437.64,168.051c0.12,8.779-2.482,18.123-6.422,27.067c-6.605,14.995-16.01,27.908-29.33,37.73    c-5.096,3.758-10.737,6.364-16.882,7.847c-0.686,0.166-1.834,0.049-2.162-0.39c-0.33-0.442-0.144-1.598,0.224-2.186    c10.428-16.669,14.714-35.382,18.128-54.376c1.727-9.605,3.156-19.266,5.014-28.844c0.641-3.304,2-6.513,3.37-9.615    c0.777-1.759,2.097-3.349,3.424-4.781c4.344-4.684,10.254-5.023,15.248-1.008c3.387,2.723,5.341,6.392,6.74,10.393    C436.917,155.395,437.622,161.103,437.64,168.051z"/>
		<path d="M388.688,171.708c-0.178,10.6-1.72,20.91-5.72,30.759c-1.065,2.621-2.385,5.145-3.711,7.648    c-0.261,0.493-1.105,0.983-1.65,0.951c-0.855-0.051-1.328-0.718-1.283-1.735c0.754-16.941-2.769-33.251-7.283-49.423    c-0.916-3.281-1.663-6.616-2.317-9.959c-0.518-2.651-0.166-5.278,1.019-7.74c1.745-3.625,5.511-5.045,9.215-3.449    c2.658,1.145,4.575,3.149,6.071,5.569c2.684,4.342,3.963,9.17,4.555,14.164C388.102,162.881,388.331,167.302,388.688,171.708z"/>
		<path d="M375.19,269.54c-4.74,0.011-8.421-3.371-8.481-7.792c-0.061-4.458,4.276-8.868,8.745-8.834    c3.626,0.028,8.458,2.413,8.398,7.646C383.792,265.759,380.243,269.528,375.19,269.54z"/>
	</g>
</g>















</svg>
